<svg xmlns="http://www.w3.org/2000/svg" width="786.5" height="899.6" viewBox="0 0 208.1 238.0"><path d="M104 2A102 102 0 0 0 2 104a102 102 0 0 0 102 102 102 102 0 0 0 102-102A102 102 0 0 0 104 2zm0 14.9a87.1 87.1 0 0 1 87.1 87.1 87.1 87.1 0 0 1-87.1 87.1A87.1 87.1 0 0 1 16.9 104 87.1 87.1 0 0 1 104 16.9z"/><path d="M147.1 92.7c-6.9 83.9 10.8 103.4 10.8 103.4s-55.1 5.5-82.7-13.4c-30.5-20.9-26.0-67.5-25.9-94.6.1-28.4 25.6-45.8 49.9-45.3C128.3 43.3 149.4 64.4 147.1 92.7z"/><path d="M82.1 139.5c11.3 36.3 50.6 62.4 50.6 62.4l18.5-1.4z" fill="#fff"/><path d="M82.1 139.5c3 13.3 17.9 29.9 30.4 41.6 24.8 23.2 42 22.4 86 54.7-18.2-51.8-18.8-62-43.5-106.1-24.7-44-67.6-20.3-67.6-20.3S79 126 82.1 139.3z"/><path d="M108.9 76.0s-4.0-11.6-18.0-11.5c-30.0.2-28.8 52.1 16.9 52.0 39.6-.1 39.2-49.4 16.1-49.6-10.2-.2-15.0 9.1-15.0 9.1z" fill="#fff"/><path d="M109.4 95.0c10.8.0 2.0 14.9-.6 20.9-1.8-8.4-10.2-20.9.6-20.9zM93.1 80.1c-5.6 0-10.2 4.5-10.2 10.2 0 5.6 4.5 10.2 10.2 10.2 5.6 0 10.2-4.5 10.2-10.2 0-5.6-4.5-10.2-10.2-10.2zm30.5-.1c-4.8 0-8.8 4.5-8.8 10.2 0 5.6 3.9 10.2 8.8 10.2 4.8 0 8.8-4.5 8.8-10.2 0-5.6-3.9-10.2-8.8-10.2z"/></svg>
